<svg width="132" height="53" viewBox="0 0 132 53" fill="none" xmlns="http://www.w3.org/2000/svg">
<path d="M36.5986 27.0497C33.5134 25.1796 30.1168 23.1321 28.2605 22.0442C27.4142 21.5483 26.4008 21.5749 25.5569 22.0749L17.1659 27.0467C15.2022 28.2102 15.1906 31.0482 17.1448 32.2276L25.3345 37.1703C26.2982 37.7519 27.5055 37.7489 28.4664 37.1626L36.6024 32.1976C38.5311 31.0206 38.5307 28.2209 36.5986 27.0497Z" fill="#0970F6"/>
<path d="M36.5986 23.9491C33.5134 22.079 30.1168 20.0315 28.2605 18.9436C27.4142 18.4477 26.4008 18.4743 25.5569 18.9743L17.1659 23.9461C15.2022 25.1096 15.1906 27.9476 17.1448 29.127L25.3345 34.0697C26.2982 34.6513 27.5055 34.6483 28.4664 34.062L36.6024 29.097C38.5311 27.9201 38.5307 25.1203 36.5986 23.9491Z" fill="#589EF7"/>
<path d="M36.5986 20.4129C33.5134 18.5429 30.1168 16.4953 28.2605 15.4075C27.4142 14.9116 26.4008 14.9381 25.5569 15.4382L17.1659 20.41C15.2022 21.5735 15.1906 24.4115 17.1448 25.5909L25.3345 30.5335C26.2982 31.1152 27.5055 31.1122 28.4664 30.5259L36.6024 25.5609C38.5311 24.3839 38.5307 21.5841 36.5986 20.4129Z" fill="#B4D1F6"/>
<path d="M24.7911 3.33328C26.062 2.61151 27.619 2.61151 28.89 3.33328L46.0978 13.1054C47.3964 13.8428 48.1986 15.221 48.1986 16.7143V36.0867C48.1986 37.58 47.3964 38.9582 46.0978 39.6956L28.89 49.4677C27.619 50.1895 26.062 50.1895 24.7911 49.4677L7.5832 39.6956C6.28467 38.9582 5.48242 37.58 5.48242 36.0867V16.7143C5.48242 15.221 6.28467 13.8428 7.5832 13.1054L24.7911 3.33328Z" stroke="#1B7BF7" stroke-width="3.77294"/>
<path d="M62.4058 34.9005C62.0129 34.9005 61.6855 34.8059 61.4236 34.6168C61.1616 34.4276 61.0307 34.2166 61.0307 33.9838V19.3596C61.0307 19.0976 61.1616 18.8866 61.4236 18.7266C61.6855 18.5665 62.0129 18.4865 62.4058 18.4865C62.8132 18.4865 63.1552 18.5665 63.4317 18.7266C63.7081 18.8866 63.8464 19.0976 63.8464 19.3596V28.5052L67.9717 24.6417C68.1172 24.4962 68.2991 24.4235 68.5174 24.4235C68.7357 24.4235 68.9467 24.4962 69.1504 24.6417C69.3686 24.7727 69.5433 24.94 69.6742 25.1438C69.8197 25.3475 69.8925 25.5585 69.8925 25.7768C69.8925 25.8641 69.8707 25.9586 69.827 26.0605C69.7979 26.1478 69.7397 26.2279 69.6524 26.3006L67.0768 28.6361L70.3072 33.2198C70.4091 33.3799 70.46 33.5327 70.46 33.6782C70.46 33.8965 70.3727 34.1147 70.1981 34.333C70.0235 34.5513 69.8125 34.7332 69.5651 34.8787C69.3177 35.0096 69.0776 35.0751 68.8448 35.0751C68.5538 35.0751 68.3209 34.9514 68.1463 34.7041L65.2215 30.3823L63.8464 31.6046V33.9838C63.8464 34.2166 63.7081 34.4276 63.4317 34.6168C63.1552 34.8059 62.8132 34.9005 62.4058 34.9005ZM75.7676 34.9005C75.3747 34.9005 75.0473 34.8059 74.7854 34.6168C74.5234 34.4276 74.3925 34.2166 74.3925 33.9838V25.4057C74.3925 25.1438 74.5234 24.9328 74.7854 24.7727C75.0473 24.6126 75.3747 24.5326 75.7676 24.5326C76.1314 24.5326 76.4297 24.6126 76.6625 24.7727C76.9099 24.9328 77.0336 25.1438 77.0336 25.4057V26.3006C77.1936 25.9805 77.4046 25.6822 77.6665 25.4057C77.943 25.1147 78.2559 24.8746 78.6051 24.6854C78.9544 24.4962 79.3254 24.4016 79.7183 24.4016H80.3949C80.6714 24.4016 80.9115 24.5253 81.1152 24.7727C81.319 25.0055 81.4208 25.2893 81.4208 25.624C81.4208 25.9732 81.319 26.2715 81.1152 26.5189C80.9115 26.7517 80.6714 26.8681 80.3949 26.8681H79.7183C79.3109 26.8681 78.9107 27.0064 78.5178 27.2828C78.1395 27.5448 77.8266 27.9158 77.5792 28.396C77.3319 28.8617 77.2082 29.4292 77.2082 30.0985V33.9838C77.2082 34.2166 77.0699 34.4276 76.7935 34.6168C76.517 34.8059 76.175 34.9005 75.7676 34.9005ZM89.8461 35.097C88.973 35.097 88.1727 34.8932 87.4451 34.4858C86.7321 34.0638 86.1573 33.5181 85.7208 32.8488C85.2988 32.1648 85.0878 31.4373 85.0878 30.666V25.4275C85.0878 25.2092 85.226 25.0055 85.5025 24.8164C85.7935 24.6272 86.1282 24.5326 86.5066 24.5326C86.8849 24.5326 87.2123 24.6272 87.4888 24.8164C87.7653 25.0055 87.9035 25.2092 87.9035 25.4275V30.666C87.9035 31.0007 87.9908 31.3136 88.1654 31.6046C88.34 31.8956 88.5729 32.143 88.8639 32.3467C89.1549 32.5359 89.475 32.6305 89.8243 32.6305C90.1881 32.6305 90.5082 32.5359 90.7847 32.3467C91.0757 32.1576 91.3085 31.9102 91.4831 31.6046C91.6578 31.299 91.7451 30.9862 91.7451 30.666V25.4057C91.7451 25.1729 91.8833 24.9692 92.1598 24.7945C92.4508 24.6199 92.7782 24.5326 93.142 24.5326C93.564 24.5326 93.906 24.6199 94.1679 24.7945C94.4298 24.9692 94.5608 25.1729 94.5608 25.4057V30.666C94.5608 31.4518 94.3425 32.1867 93.906 32.8706C93.484 33.54 92.9092 34.0784 92.1816 34.4858C91.4686 34.8932 90.6901 35.097 89.8461 35.097ZM99.5682 34.9005C99.219 34.9005 98.9716 34.7987 98.8261 34.5949C98.6806 34.3767 98.6078 34.1438 98.6078 33.8965C98.6078 33.6782 98.6515 33.4745 98.7388 33.2853C98.8407 33.0816 98.9571 32.8997 99.088 32.7396L103.366 26.8245H99.6119C99.3791 26.8245 99.1753 26.7153 99.0007 26.4971C98.8407 26.2642 98.7606 25.9878 98.7606 25.6676C98.7606 25.362 98.8407 25.1001 99.0007 24.8818C99.1608 24.649 99.3645 24.5326 99.6119 24.5326H106.029C106.276 24.5326 106.487 24.6126 106.662 24.7727C106.837 24.9328 106.924 25.1729 106.924 25.493C106.924 25.8859 106.778 26.2788 106.487 26.6717L102.187 32.5868H106.444C106.677 32.5868 106.873 32.7032 107.033 32.9361C107.208 33.1689 107.295 33.4454 107.295 33.7655C107.295 34.0711 107.215 34.3403 107.055 34.5731C106.909 34.7914 106.706 34.9005 106.444 34.9005H99.5682ZM116.086 35.097C115.053 35.097 114.136 34.9151 113.336 34.5513C112.55 34.1729 111.932 33.6491 111.481 32.9797C111.029 32.2958 110.804 31.51 110.804 30.6224V28.7671C110.804 27.9813 111.015 27.261 111.437 26.6062C111.873 25.9368 112.448 25.4057 113.161 25.0128C113.889 24.6054 114.696 24.4016 115.584 24.4016C116.399 24.4016 117.141 24.5763 117.81 24.9255C118.494 25.2747 119.047 25.7549 119.469 26.3661C119.891 26.9773 120.102 27.6903 120.102 28.5052C120.102 29.1309 120 29.582 119.797 29.8584C119.593 30.1204 119.331 30.2877 119.011 30.3605C118.705 30.4187 118.385 30.4478 118.051 30.4478H113.62V30.7752C113.62 31.4009 113.852 31.9102 114.318 32.3031C114.798 32.6814 115.417 32.8706 116.173 32.8706C116.654 32.8706 117.054 32.7978 117.374 32.6523C117.694 32.5068 117.971 32.3686 118.203 32.2376C118.436 32.1066 118.654 32.0412 118.858 32.0412C119.076 32.0412 119.266 32.1139 119.426 32.2594C119.586 32.4049 119.709 32.5796 119.797 32.7833C119.884 32.9724 119.928 33.1398 119.928 33.2853C119.928 33.5327 119.768 33.8019 119.448 34.0929C119.142 34.3694 118.698 34.6095 118.116 34.8132C117.549 35.0024 116.872 35.097 116.086 35.097ZM113.62 28.7889H116.806C117.054 28.7889 117.221 28.7525 117.308 28.6798C117.41 28.5925 117.461 28.4324 117.461 28.1996C117.461 27.8649 117.367 27.5666 117.177 27.3047C117.003 27.0427 116.77 26.839 116.479 26.6935C116.203 26.548 115.89 26.4752 115.54 26.4752C115.206 26.4752 114.893 26.548 114.602 26.6935C114.311 26.8245 114.071 27.0209 113.882 27.2828C113.707 27.5302 113.62 27.8285 113.62 28.1777V28.7889ZM125.785 34.9005C125.392 34.9005 125.065 34.8059 124.803 34.6168C124.541 34.4276 124.41 34.2166 124.41 33.9838V25.4057C124.41 25.1438 124.541 24.9328 124.803 24.7727C125.065 24.6126 125.392 24.5326 125.785 24.5326C126.149 24.5326 126.447 24.6126 126.68 24.7727C126.927 24.9328 127.051 25.1438 127.051 25.4057V26.3006C127.211 25.9805 127.422 25.6822 127.684 25.4057C127.96 25.1147 128.273 24.8746 128.623 24.6854C128.972 24.4962 129.343 24.4016 129.736 24.4016H130.412C130.689 24.4016 130.929 24.5253 131.133 24.7727C131.336 25.0055 131.438 25.2893 131.438 25.624C131.438 25.9732 131.336 26.2715 131.133 26.5189C130.929 26.7517 130.689 26.8681 130.412 26.8681H129.736C129.328 26.8681 128.928 27.0064 128.535 27.2828C128.157 27.5448 127.844 27.9158 127.597 28.396C127.349 28.8617 127.226 29.4292 127.226 30.0985V33.9838C127.226 34.2166 127.087 34.4276 126.811 34.6168C126.534 34.8059 126.192 34.9005 125.785 34.9005Z" fill="#1B7BF7"/>
</svg>
